<svg xmlns="http://www.w3.org/2000/svg" viewBox="0 0 120 120" role="img" aria-label="Solvora — Science Learning Hub">
  <defs>
    <linearGradient id="solvora-bar-1" x1="0" y1="1" x2="0" y2="0">
      <stop offset="0" stop-color="#0f2659"/>
      <stop offset="1" stop-color="#1f3a8a"/>
    </linearGradient>
    <linearGradient id="solvora-bar-2" x1="0" y1="1" x2="0" y2="0">
      <stop offset="0" stop-color="#1f3a8a"/>
      <stop offset="1" stop-color="#2563eb"/>
    </linearGradient>
    <linearGradient id="solvora-bar-3" x1="0" y1="1" x2="0" y2="0">
      <stop offset="0" stop-color="#2563eb"/>
      <stop offset="1" stop-color="#38bdf8"/>
    </linearGradient>
    <linearGradient id="solvora-bar-4" x1="0" y1="1" x2="0" y2="0">
      <stop offset="0" stop-color="#38bdf8"/>
      <stop offset="1" stop-color="#7dd3fc"/>
    </linearGradient>
  </defs>
  <!-- L letterform (deep navy) -->
  <path d="M28 14h22v64h44v22H28V14Z" fill="#0b1d4a"/>
  <!-- vertical axis (top arrow) -->
  <line x1="20" y1="106" x2="20" y2="14" stroke="#0b1d4a" stroke-width="2.2" stroke-linecap="round"/>
  <path d="M20 8 L15 18 L25 18 Z" fill="#0b1d4a"/>
  <!-- horizontal axis (right arrow) -->
  <line x1="20" y1="106" x2="110" y2="106" stroke="#0b1d4a" stroke-width="2.2" stroke-linecap="round"/>
  <path d="M114 106 L104 101 L104 111 Z" fill="#0b1d4a"/>
  <!-- bars inside the L (4 bars, ascending gradient) -->
  <rect x="54" y="64" width="7" height="14" rx="1" fill="url(#solvora-bar-1)"/>
  <rect x="63" y="56" width="7" height="22" rx="1" fill="url(#solvora-bar-2)"/>
  <rect x="72" y="46" width="7" height="32" rx="1" fill="url(#solvora-bar-3)"/>
  <rect x="81" y="36" width="7" height="42" rx="1" fill="url(#solvora-bar-4)"/>
  <!-- atomic orbit curve (diagonal sweep) -->
  <path d="M16 100 Q 4 56 42 28 Q 82 4 108 22" fill="none" stroke="#1d4ed8" stroke-width="2.4" stroke-linecap="round"/>
  <!-- orbit dots -->
  <circle cx="106" cy="22" r="6" fill="#38bdf8"/>
  <circle cx="20" cy="100" r="4" fill="#1d4ed8"/>
</svg>
