<svg xmlns="http://www.w3.org/2000/svg" viewBox="0 0 512 512" role="img" aria-label="Yuta Eng logo">
  <defs>
    <linearGradient id="bg" x1="64" x2="448" y1="64" y2="448" gradientUnits="userSpaceOnUse">
      <stop offset="0" stop-color="#0f172a"/>
      <stop offset="0.52" stop-color="#082f49"/>
      <stop offset="1" stop-color="#0ea5e9"/>
    </linearGradient>
    <radialGradient id="glow" cx="72%" cy="16%" r="72%">
      <stop offset="0" stop-color="#fbbf24" stop-opacity="0.95"/>
      <stop offset="0.32" stop-color="#38bdf8" stop-opacity="0.48"/>
      <stop offset="1" stop-color="#0f172a" stop-opacity="0"/>
    </radialGradient>
    <filter id="shadow" x="-20%" y="-20%" width="140%" height="140%">
      <feDropShadow dx="0" dy="18" stdDeviation="18" flood-color="#020617" flood-opacity="0.32"/>
    </filter>
  </defs>
  <rect width="512" height="512" rx="120" fill="url(#bg)"/>
  <rect width="512" height="512" rx="120" fill="url(#glow)"/>
  <g filter="url(#shadow)">
    <path d="M126 134h58l71 119 72-119h58L282 302v76h-54v-76L126 134Z" fill="#f8fafc"/>
    <path d="M304 134h118v45h-65v52h55v43h-55v59h70v45H304V134Z" fill="#bae6fd"/>
    <path d="M118 380h276" stroke="#fbbf24" stroke-width="18" stroke-linecap="round"/>
  </g>
  <circle cx="392" cy="116" r="25" fill="#fbbf24"/>
  <path d="M92 101c30-18 65-27 105-27" stroke="#7dd3fc" stroke-width="15" stroke-linecap="round" opacity="0.75"/>
</svg>
