<svg xmlns="http://www.w3.org/2000/svg" viewBox="0 0 512 512" role="img" aria-label="Lumora">
  <g transform="translate(46 46) scale(3.5)" fill="#000000">
    <!-- L letterform -->
    <path d="M28 14h22v64h44v22H28V14Z"/>
    <!-- axes -->
    <line x1="20" y1="106" x2="20" y2="14" stroke="#000000" stroke-width="2.2" stroke-linecap="round"/>
    <path d="M20 8 L15 18 L25 18 Z"/>
    <line x1="20" y1="106" x2="110" y2="106" stroke="#000000" stroke-width="2.2" stroke-linecap="round"/>
    <path d="M114 106 L104 101 L104 111 Z"/>
    <!-- bars -->
    <rect x="54" y="64" width="7" height="14" rx="1"/>
    <rect x="63" y="56" width="7" height="22" rx="1"/>
    <rect x="72" y="46" width="7" height="32" rx="1"/>
    <rect x="81" y="36" width="7" height="42" rx="1"/>
    <!-- orbit -->
    <path d="M16 100 Q 4 56 42 28 Q 82 4 108 22" fill="none" stroke="#000000" stroke-width="2.4" stroke-linecap="round"/>
    <circle cx="106" cy="22" r="6"/>
    <circle cx="20" cy="100" r="4"/>
  </g>
</svg>
