<svg xmlns="http://www.w3.org/2000/svg" viewBox="0 0 512 512" role="img" aria-label="Lumora">
  <defs>
    <linearGradient id="ic-bar-1" x1="0" y1="1" x2="0" y2="0">
      <stop offset="0" stop-color="#1f3a8a"/>
      <stop offset="1" stop-color="#2563eb"/>
    </linearGradient>
    <linearGradient id="ic-bar-2" x1="0" y1="1" x2="0" y2="0">
      <stop offset="0" stop-color="#2563eb"/>
      <stop offset="1" stop-color="#3b82f6"/>
    </linearGradient>
    <linearGradient id="ic-bar-3" x1="0" y1="1" x2="0" y2="0">
      <stop offset="0" stop-color="#3b82f6"/>
      <stop offset="1" stop-color="#38bdf8"/>
    </linearGradient>
  </defs>
  <rect width="512" height="512" rx="112" fill="#ffffff"/>
  <g transform="translate(76 76) scale(3.0)">
    <path d="M28 16h22v62h44v22H28V16Z" fill="#0b1d4a"/>
    <path d="M39 10 L31 22 L47 22 Z" fill="#0b1d4a"/>
    <line x1="39" y1="22" x2="39" y2="12" stroke="#0b1d4a" stroke-width="2"/>
    <path d="M106 89 L94 81 L94 97 Z" fill="#0b1d4a"/>
    <rect x="55" y="60" width="8" height="18" rx="1" fill="url(#ic-bar-1)"/>
    <rect x="66" y="50" width="8" height="28" rx="1" fill="url(#ic-bar-2)"/>
    <rect x="77" y="38" width="8" height="40" rx="1" fill="url(#ic-bar-3)"/>
    <path d="M22 96 Q 6 60 40 32 Q 78 8 102 22" fill="none" stroke="#1d4ed8" stroke-width="2.6" stroke-linecap="round"/>
    <circle cx="100" cy="22" r="5.5" fill="#38bdf8"/>
    <circle cx="22" cy="96" r="4.5" fill="#1d4ed8"/>
  </g>
</svg>
